<?xml version="1.0" encoding="UTF-8"?>
<svg xmlns="http://www.w3.org/2000/svg" width="960" height="540" viewBox="0 0 960 540"><rect width="100%" height="100%" fill="#ffffff"/><text x="480" y="30" text-anchor="middle" font-family="sans-serif" font-size="22" font-weight="700">Feature Count per MGF File</text><line x1="80.00" y1="462.00" x2="930.00" y2="462.00" stroke="#e5e7eb" stroke-width="1"/><text x="72.00" y="466.00" text-anchor="end" font-family="sans-serif" font-size="12" fill="#111827">0</text><line x1="80.00" y1="380.80" x2="930.00" y2="380.80" stroke="#e5e7eb" stroke-width="1"/><text x="72.00" y="384.80" text-anchor="end" font-family="sans-serif" font-size="12" fill="#111827">34</text><line x1="80.00" y1="299.60" x2="930.00" y2="299.60" stroke="#e5e7eb" stroke-width="1"/><text x="72.00" y="303.60" text-anchor="end" font-family="sans-serif" font-size="12" fill="#111827">68</text><line x1="80.00" y1="218.40" x2="930.00" y2="218.40" stroke="#e5e7eb" stroke-width="1"/><text x="72.00" y="222.40" text-anchor="end" font-family="sans-serif" font-size="12" fill="#111827">102</text><line x1="80.00" y1="137.20" x2="930.00" y2="137.20" stroke="#e5e7eb" stroke-width="1"/><text x="72.00" y="141.20" text-anchor="end" font-family="sans-serif" font-size="12" fill="#111827">136</text><line x1="80.00" y1="56.00" x2="930.00" y2="56.00" stroke="#e5e7eb" stroke-width="1"/><text x="72.00" y="60.00" text-anchor="end" font-family="sans-serif" font-size="12" fill="#111827">170</text><line x1="80.00" y1="462.00" x2="930.00" y2="462.00" stroke="#111827" stroke-width="1.5"/><line x1="80.00" y1="56.00" x2="80.00" y2="462.00" stroke="#111827" stroke-width="1.5"/><text x="80.00" y="482.00" text-anchor="middle" font-family="sans-serif" font-size="12" fill="#111827">0.0</text><text x="292.50" y="482.00" text-anchor="middle" font-family="sans-serif" font-size="12" fill="#111827">413.8</text><text x="505.00" y="482.00" text-anchor="middle" font-family="sans-serif" font-size="12" fill="#111827">827.5</text><text x="717.50" y="482.00" text-anchor="middle" font-family="sans-serif" font-size="12" fill="#111827">1241.2</text><text x="930.00" y="482.00" text-anchor="middle" font-family="sans-serif" font-size="12" fill="#111827">1655.0</text><text x="505.00" y="520" text-anchor="middle" font-family="sans-serif" font-size="15" fill="#111827">Features per MGF file</text><text x="22" y="259.00" text-anchor="middle" transform="rotate(-90 22 259.00)" font-family="sans-serif" font-size="15" fill="#111827">Count</text><rect x="81.13" y="421.40" width="5.38" height="40.60" fill="#2563eb" opacity="0.78"/><rect x="95.30" y="189.74" width="5.38" height="272.26" fill="#2563eb" opacity="0.78"/><rect x="109.47" y="385.58" width="5.38" height="76.42" fill="#2563eb" opacity="0.78"/><rect x="123.63" y="440.51" width="5.38" height="21.49" fill="#2563eb" opacity="0.78"/><rect x="137.80" y="419.01" width="5.38" height="42.99" fill="#2563eb" opacity="0.78"/><rect x="151.97" y="378.41" width="5.38" height="83.59" fill="#2563eb" opacity="0.78"/><rect x="166.13" y="344.98" width="5.38" height="117.02" fill="#2563eb" opacity="0.78"/><rect x="180.30" y="330.65" width="5.38" height="131.35" fill="#2563eb" opacity="0.78"/><rect x="194.47" y="311.54" width="5.38" height="150.46" fill="#2563eb" opacity="0.78"/><rect x="208.63" y="290.05" width="5.38" height="171.95" fill="#2563eb" opacity="0.78"/><rect x="222.80" y="270.94" width="5.38" height="191.06" fill="#2563eb" opacity="0.78"/><rect x="236.97" y="259.00" width="5.38" height="203.00" fill="#2563eb" opacity="0.78"/><rect x="251.13" y="294.82" width="5.38" height="167.18" fill="#2563eb" opacity="0.78"/><rect x="265.30" y="268.55" width="5.38" height="193.45" fill="#2563eb" opacity="0.78"/><rect x="279.47" y="223.18" width="5.38" height="238.82" fill="#2563eb" opacity="0.78"/><rect x="293.63" y="177.80" width="5.38" height="284.20" fill="#2563eb" opacity="0.78"/><rect x="307.80" y="247.06" width="5.38" height="214.94" fill="#2563eb" opacity="0.78"/><rect x="321.97" y="242.28" width="5.38" height="219.72" fill="#2563eb" opacity="0.78"/><rect x="336.13" y="249.45" width="5.38" height="212.55" fill="#2563eb" opacity="0.78"/><rect x="350.30" y="287.66" width="5.38" height="174.34" fill="#2563eb" opacity="0.78"/><rect x="364.47" y="306.76" width="5.38" height="155.24" fill="#2563eb" opacity="0.78"/><rect x="378.63" y="297.21" width="5.38" height="164.79" fill="#2563eb" opacity="0.78"/><rect x="392.80" y="323.48" width="5.38" height="138.52" fill="#2563eb" opacity="0.78"/><rect x="406.97" y="366.47" width="5.38" height="95.53" fill="#2563eb" opacity="0.78"/><rect x="421.13" y="373.64" width="5.38" height="88.36" fill="#2563eb" opacity="0.78"/><rect x="435.30" y="366.47" width="5.38" height="95.53" fill="#2563eb" opacity="0.78"/><rect x="449.47" y="397.52" width="5.38" height="64.48" fill="#2563eb" opacity="0.78"/><rect x="463.63" y="419.01" width="5.38" height="42.99" fill="#2563eb" opacity="0.78"/><rect x="477.80" y="433.34" width="5.38" height="28.66" fill="#2563eb" opacity="0.78"/><rect x="491.97" y="435.73" width="5.38" height="26.27" fill="#2563eb" opacity="0.78"/><rect x="506.13" y="433.34" width="5.38" height="28.66" fill="#2563eb" opacity="0.78"/><rect x="520.30" y="447.67" width="5.38" height="14.33" fill="#2563eb" opacity="0.78"/><rect x="534.47" y="433.34" width="5.38" height="28.66" fill="#2563eb" opacity="0.78"/><rect x="548.63" y="447.67" width="5.38" height="14.33" fill="#2563eb" opacity="0.78"/><rect x="562.80" y="454.84" width="5.38" height="7.16" fill="#2563eb" opacity="0.78"/><rect x="576.97" y="426.18" width="5.38" height="35.82" fill="#2563eb" opacity="0.78"/><rect x="591.13" y="445.28" width="5.38" height="16.72" fill="#2563eb" opacity="0.78"/><rect x="605.30" y="419.01" width="5.38" height="42.99" fill="#2563eb" opacity="0.78"/><rect x="619.47" y="411.85" width="5.38" height="50.15" fill="#2563eb" opacity="0.78"/><rect x="633.63" y="440.51" width="5.38" height="21.49" fill="#2563eb" opacity="0.78"/><rect x="647.80" y="452.45" width="5.38" height="9.55" fill="#2563eb" opacity="0.78"/><rect x="661.97" y="442.89" width="5.38" height="19.11" fill="#2563eb" opacity="0.78"/><rect x="676.13" y="454.84" width="5.38" height="7.16" fill="#2563eb" opacity="0.78"/><rect x="690.30" y="445.28" width="5.38" height="16.72" fill="#2563eb" opacity="0.78"/><rect x="704.47" y="440.51" width="5.38" height="21.49" fill="#2563eb" opacity="0.78"/><rect x="718.63" y="447.67" width="5.38" height="14.33" fill="#2563eb" opacity="0.78"/><rect x="732.80" y="440.51" width="5.38" height="21.49" fill="#2563eb" opacity="0.78"/><rect x="746.97" y="438.12" width="5.38" height="23.88" fill="#2563eb" opacity="0.78"/><rect x="761.13" y="457.22" width="5.38" height="4.78" fill="#2563eb" opacity="0.78"/><rect x="775.30" y="462.00" width="5.38" height="0.00" fill="#2563eb" opacity="0.78"/><rect x="789.47" y="450.06" width="5.38" height="11.94" fill="#2563eb" opacity="0.78"/><rect x="803.63" y="454.84" width="5.38" height="7.16" fill="#2563eb" opacity="0.78"/><rect x="817.80" y="452.45" width="5.38" height="9.55" fill="#2563eb" opacity="0.78"/><rect x="831.97" y="442.89" width="5.38" height="19.11" fill="#2563eb" opacity="0.78"/><rect x="846.13" y="447.67" width="5.38" height="14.33" fill="#2563eb" opacity="0.78"/><rect x="860.30" y="454.84" width="5.38" height="7.16" fill="#2563eb" opacity="0.78"/><rect x="874.47" y="459.61" width="5.38" height="2.39" fill="#2563eb" opacity="0.78"/><rect x="888.63" y="462.00" width="5.38" height="0.00" fill="#2563eb" opacity="0.78"/><rect x="902.80" y="457.22" width="5.38" height="4.78" fill="#2563eb" opacity="0.78"/><rect x="916.97" y="459.61" width="5.38" height="2.39" fill="#2563eb" opacity="0.78"/><rect x="87.65" y="56.00" width="5.38" height="406.00" fill="#dc2626" opacity="0.78"/><rect x="101.82" y="352.14" width="5.38" height="109.86" fill="#dc2626" opacity="0.78"/><rect x="115.98" y="290.05" width="5.38" height="171.95" fill="#dc2626" opacity="0.78"/><rect x="130.15" y="182.58" width="5.38" height="279.42" fill="#dc2626" opacity="0.78"/><rect x="144.32" y="151.53" width="5.38" height="310.47" fill="#dc2626" opacity="0.78"/><rect x="158.48" y="79.88" width="5.38" height="382.12" fill="#dc2626" opacity="0.78"/><rect x="172.65" y="134.81" width="5.38" height="327.19" fill="#dc2626" opacity="0.78"/><rect x="186.82" y="144.36" width="5.38" height="317.64" fill="#dc2626" opacity="0.78"/><rect x="200.98" y="75.11" width="5.38" height="386.89" fill="#dc2626" opacity="0.78"/><rect x="215.15" y="182.58" width="5.38" height="279.42" fill="#dc2626" opacity="0.78"/><rect x="229.32" y="168.25" width="5.38" height="293.75" fill="#dc2626" opacity="0.78"/><rect x="243.48" y="206.46" width="5.38" height="255.54" fill="#dc2626" opacity="0.78"/><rect x="257.65" y="275.72" width="5.38" height="186.28" fill="#dc2626" opacity="0.78"/><rect x="271.82" y="304.38" width="5.38" height="157.62" fill="#dc2626" opacity="0.78"/><rect x="285.98" y="361.69" width="5.38" height="100.31" fill="#dc2626" opacity="0.78"/><rect x="300.15" y="371.25" width="5.38" height="90.75" fill="#dc2626" opacity="0.78"/><rect x="314.32" y="383.19" width="5.38" height="78.81" fill="#dc2626" opacity="0.78"/><rect x="328.48" y="440.51" width="5.38" height="21.49" fill="#dc2626" opacity="0.78"/><rect x="342.65" y="440.51" width="5.38" height="21.49" fill="#dc2626" opacity="0.78"/><rect x="356.82" y="450.06" width="5.38" height="11.94" fill="#dc2626" opacity="0.78"/><rect x="370.98" y="450.06" width="5.38" height="11.94" fill="#dc2626" opacity="0.78"/><rect x="385.15" y="454.84" width="5.38" height="7.16" fill="#dc2626" opacity="0.78"/><rect x="399.32" y="454.84" width="5.38" height="7.16" fill="#dc2626" opacity="0.78"/><rect x="413.48" y="452.45" width="5.38" height="9.55" fill="#dc2626" opacity="0.78"/><rect x="427.65" y="445.28" width="5.38" height="16.72" fill="#dc2626" opacity="0.78"/><rect x="441.82" y="447.67" width="5.38" height="14.33" fill="#dc2626" opacity="0.78"/><rect x="455.98" y="462.00" width="5.38" height="0.00" fill="#dc2626" opacity="0.78"/><rect x="470.15" y="457.22" width="5.38" height="4.78" fill="#dc2626" opacity="0.78"/><rect x="484.32" y="457.22" width="5.38" height="4.78" fill="#dc2626" opacity="0.78"/><rect x="498.48" y="447.67" width="5.38" height="14.33" fill="#dc2626" opacity="0.78"/><rect x="512.65" y="457.22" width="5.38" height="4.78" fill="#dc2626" opacity="0.78"/><rect x="526.82" y="452.45" width="5.38" height="9.55" fill="#dc2626" opacity="0.78"/><rect x="540.98" y="430.95" width="5.38" height="31.05" fill="#dc2626" opacity="0.78"/><rect x="555.15" y="440.51" width="5.38" height="21.49" fill="#dc2626" opacity="0.78"/><rect x="569.32" y="447.67" width="5.38" height="14.33" fill="#dc2626" opacity="0.78"/><rect x="583.48" y="442.89" width="5.38" height="19.11" fill="#dc2626" opacity="0.78"/><rect x="597.65" y="442.89" width="5.38" height="19.11" fill="#dc2626" opacity="0.78"/><rect x="611.82" y="447.67" width="5.38" height="14.33" fill="#dc2626" opacity="0.78"/><rect x="625.98" y="438.12" width="5.38" height="23.88" fill="#dc2626" opacity="0.78"/><rect x="640.15" y="440.51" width="5.38" height="21.49" fill="#dc2626" opacity="0.78"/><rect x="654.32" y="450.06" width="5.38" height="11.94" fill="#dc2626" opacity="0.78"/><rect x="668.48" y="445.28" width="5.38" height="16.72" fill="#dc2626" opacity="0.78"/><rect x="682.65" y="454.84" width="5.38" height="7.16" fill="#dc2626" opacity="0.78"/><rect x="696.82" y="440.51" width="5.38" height="21.49" fill="#dc2626" opacity="0.78"/><rect x="710.98" y="447.67" width="5.38" height="14.33" fill="#dc2626" opacity="0.78"/><rect x="725.15" y="440.51" width="5.38" height="21.49" fill="#dc2626" opacity="0.78"/><rect x="739.32" y="459.61" width="5.38" height="2.39" fill="#dc2626" opacity="0.78"/><rect x="753.48" y="454.84" width="5.38" height="7.16" fill="#dc2626" opacity="0.78"/><rect x="767.65" y="450.06" width="5.38" height="11.94" fill="#dc2626" opacity="0.78"/><rect x="781.82" y="452.45" width="5.38" height="9.55" fill="#dc2626" opacity="0.78"/><rect x="795.98" y="462.00" width="5.38" height="0.00" fill="#dc2626" opacity="0.78"/><rect x="810.15" y="459.61" width="5.38" height="2.39" fill="#dc2626" opacity="0.78"/><rect x="824.32" y="462.00" width="5.38" height="0.00" fill="#dc2626" opacity="0.78"/><rect x="838.48" y="462.00" width="5.38" height="0.00" fill="#dc2626" opacity="0.78"/><rect x="852.65" y="462.00" width="5.38" height="0.00" fill="#dc2626" opacity="0.78"/><rect x="866.82" y="462.00" width="5.38" height="0.00" fill="#dc2626" opacity="0.78"/><rect x="880.98" y="462.00" width="5.38" height="0.00" fill="#dc2626" opacity="0.78"/><rect x="895.15" y="462.00" width="5.38" height="0.00" fill="#dc2626" opacity="0.78"/><rect x="909.32" y="462.00" width="5.38" height="0.00" fill="#dc2626" opacity="0.78"/><rect x="923.48" y="462.00" width="5.38" height="0.00" fill="#dc2626" opacity="0.78"/><rect x="730" y="58" width="14" height="14" fill="#2563eb" opacity="0.78"/><text x="752" y="70" font-family="sans-serif" font-size="14">positive</text><rect x="830" y="58" width="14" height="14" fill="#dc2626" opacity="0.78"/><text x="852" y="70" font-family="sans-serif" font-size="14">negative</text></svg>
