<?xml version="1.0" encoding="UTF-8"?>
<svg xmlns="http://www.w3.org/2000/svg" width="960" height="540" viewBox="0 0 960 540"><rect width="100%" height="100%" fill="#ffffff"/><text x="480" y="30" text-anchor="middle" font-family="sans-serif" font-size="22" font-weight="700">Parent Mass Distribution</text><line x1="80.00" y1="462.00" x2="930.00" y2="462.00" stroke="#e5e7eb" stroke-width="1"/><text x="72.00" y="466.00" text-anchor="end" font-family="sans-serif" font-size="12" fill="#111827">0</text><line x1="80.00" y1="380.80" x2="930.00" y2="380.80" stroke="#e5e7eb" stroke-width="1"/><text x="72.00" y="384.80" text-anchor="end" font-family="sans-serif" font-size="12" fill="#111827">14056</text><line x1="80.00" y1="299.60" x2="930.00" y2="299.60" stroke="#e5e7eb" stroke-width="1"/><text x="72.00" y="303.60" text-anchor="end" font-family="sans-serif" font-size="12" fill="#111827">28112</text><line x1="80.00" y1="218.40" x2="930.00" y2="218.40" stroke="#e5e7eb" stroke-width="1"/><text x="72.00" y="222.40" text-anchor="end" font-family="sans-serif" font-size="12" fill="#111827">42168</text><line x1="80.00" y1="137.20" x2="930.00" y2="137.20" stroke="#e5e7eb" stroke-width="1"/><text x="72.00" y="141.20" text-anchor="end" font-family="sans-serif" font-size="12" fill="#111827">56224</text><line x1="80.00" y1="56.00" x2="930.00" y2="56.00" stroke="#e5e7eb" stroke-width="1"/><text x="72.00" y="60.00" text-anchor="end" font-family="sans-serif" font-size="12" fill="#111827">70280</text><line x1="80.00" y1="462.00" x2="930.00" y2="462.00" stroke="#111827" stroke-width="1.5"/><line x1="80.00" y1="56.00" x2="80.00" y2="462.00" stroke="#111827" stroke-width="1.5"/><text x="80.00" y="482.00" text-anchor="middle" font-family="sans-serif" font-size="12" fill="#111827">120.0</text><text x="292.50" y="482.00" text-anchor="middle" font-family="sans-serif" font-size="12" fill="#111827">464.2</text><text x="505.00" y="482.00" text-anchor="middle" font-family="sans-serif" font-size="12" fill="#111827">808.4</text><text x="717.50" y="482.00" text-anchor="middle" font-family="sans-serif" font-size="12" fill="#111827">1152.6</text><text x="930.00" y="482.00" text-anchor="middle" font-family="sans-serif" font-size="12" fill="#111827">1496.8</text><text x="505.00" y="520" text-anchor="middle" font-family="sans-serif" font-size="15" fill="#111827">Precursor m/z</text><text x="22" y="259.00" text-anchor="middle" transform="rotate(-90 22 259.00)" font-family="sans-serif" font-size="15" fill="#111827">Count</text><rect x="81.13" y="459.03" width="5.38" height="2.97" fill="#2563eb" opacity="0.78"/><rect x="95.30" y="417.98" width="5.38" height="44.02" fill="#2563eb" opacity="0.78"/><rect x="109.47" y="419.23" width="5.38" height="42.77" fill="#2563eb" opacity="0.78"/><rect x="123.63" y="376.83" width="5.38" height="85.17" fill="#2563eb" opacity="0.78"/><rect x="137.80" y="377.33" width="5.38" height="84.67" fill="#2563eb" opacity="0.78"/><rect x="151.97" y="341.96" width="5.38" height="120.04" fill="#2563eb" opacity="0.78"/><rect x="166.13" y="235.38" width="5.38" height="226.62" fill="#2563eb" opacity="0.78"/><rect x="180.30" y="127.19" width="5.38" height="334.81" fill="#2563eb" opacity="0.78"/><rect x="194.47" y="164.04" width="5.38" height="297.96" fill="#2563eb" opacity="0.78"/><rect x="208.63" y="56.00" width="5.38" height="406.00" fill="#2563eb" opacity="0.78"/><rect x="222.80" y="153.67" width="5.38" height="308.33" fill="#2563eb" opacity="0.78"/><rect x="236.97" y="210.89" width="5.38" height="251.11" fill="#2563eb" opacity="0.78"/><rect x="251.13" y="156.88" width="5.38" height="305.12" fill="#2563eb" opacity="0.78"/><rect x="265.30" y="138.91" width="5.38" height="323.09" fill="#2563eb" opacity="0.78"/><rect x="279.47" y="154.23" width="5.38" height="307.77" fill="#2563eb" opacity="0.78"/><rect x="293.63" y="237.51" width="5.38" height="224.49" fill="#2563eb" opacity="0.78"/><rect x="307.80" y="273.00" width="5.38" height="189.00" fill="#2563eb" opacity="0.78"/><rect x="321.97" y="301.30" width="5.38" height="160.70" fill="#2563eb" opacity="0.78"/><rect x="336.13" y="314.72" width="5.38" height="147.28" fill="#2563eb" opacity="0.78"/><rect x="350.30" y="318.35" width="5.38" height="143.65" fill="#2563eb" opacity="0.78"/><rect x="364.47" y="295.49" width="5.38" height="166.51" fill="#2563eb" opacity="0.78"/><rect x="378.63" y="291.37" width="5.38" height="170.63" fill="#2563eb" opacity="0.78"/><rect x="392.80" y="266.27" width="5.38" height="195.73" fill="#2563eb" opacity="0.78"/><rect x="406.97" y="317.41" width="5.38" height="144.59" fill="#2563eb" opacity="0.78"/><rect x="421.13" y="351.00" width="5.38" height="111.00" fill="#2563eb" opacity="0.78"/><rect x="435.30" y="363.40" width="5.38" height="98.60" fill="#2563eb" opacity="0.78"/><rect x="449.47" y="412.46" width="5.38" height="49.54" fill="#2563eb" opacity="0.78"/><rect x="463.63" y="418.04" width="5.38" height="43.96" fill="#2563eb" opacity="0.78"/><rect x="477.80" y="427.21" width="5.38" height="34.79" fill="#2563eb" opacity="0.78"/><rect x="491.97" y="432.96" width="5.38" height="29.04" fill="#2563eb" opacity="0.78"/><rect x="506.13" y="430.70" width="5.38" height="31.30" fill="#2563eb" opacity="0.78"/><rect x="520.30" y="435.15" width="5.38" height="26.85" fill="#2563eb" opacity="0.78"/><rect x="534.47" y="440.53" width="5.38" height="21.47" fill="#2563eb" opacity="0.78"/><rect x="548.63" y="445.99" width="5.38" height="16.01" fill="#2563eb" opacity="0.78"/><rect x="562.80" y="443.17" width="5.38" height="18.83" fill="#2563eb" opacity="0.78"/><rect x="576.97" y="449.99" width="5.38" height="12.01" fill="#2563eb" opacity="0.78"/><rect x="591.13" y="451.33" width="5.38" height="10.67" fill="#2563eb" opacity="0.78"/><rect x="605.30" y="451.73" width="5.38" height="10.27" fill="#2563eb" opacity="0.78"/><rect x="619.47" y="456.78" width="5.38" height="5.22" fill="#2563eb" opacity="0.78"/><rect x="633.63" y="456.59" width="5.38" height="5.41" fill="#2563eb" opacity="0.78"/><rect x="647.80" y="459.63" width="5.38" height="2.37" fill="#2563eb" opacity="0.78"/><rect x="661.97" y="458.80" width="5.38" height="3.20" fill="#2563eb" opacity="0.78"/><rect x="676.13" y="459.43" width="5.38" height="2.57" fill="#2563eb" opacity="0.78"/><rect x="690.30" y="459.82" width="5.38" height="2.18" fill="#2563eb" opacity="0.78"/><rect x="704.47" y="458.26" width="5.38" height="3.74" fill="#2563eb" opacity="0.78"/><rect x="718.63" y="459.44" width="5.38" height="2.56" fill="#2563eb" opacity="0.78"/><rect x="732.80" y="458.64" width="5.38" height="3.36" fill="#2563eb" opacity="0.78"/><rect x="746.97" y="459.93" width="5.38" height="2.07" fill="#2563eb" opacity="0.78"/><rect x="761.13" y="460.47" width="5.38" height="1.53" fill="#2563eb" opacity="0.78"/><rect x="775.30" y="460.97" width="5.38" height="1.03" fill="#2563eb" opacity="0.78"/><rect x="789.47" y="461.24" width="5.38" height="0.76" fill="#2563eb" opacity="0.78"/><rect x="803.63" y="461.30" width="5.38" height="0.70" fill="#2563eb" opacity="0.78"/><rect x="817.80" y="461.16" width="5.38" height="0.84" fill="#2563eb" opacity="0.78"/><rect x="831.97" y="461.54" width="5.38" height="0.46" fill="#2563eb" opacity="0.78"/><rect x="846.13" y="461.65" width="5.38" height="0.35" fill="#2563eb" opacity="0.78"/><rect x="860.30" y="461.68" width="5.38" height="0.32" fill="#2563eb" opacity="0.78"/><rect x="874.47" y="461.82" width="5.38" height="0.18" fill="#2563eb" opacity="0.78"/><rect x="888.63" y="461.66" width="5.38" height="0.34" fill="#2563eb" opacity="0.78"/><rect x="902.80" y="461.87" width="5.38" height="0.13" fill="#2563eb" opacity="0.78"/><rect x="916.97" y="461.87" width="5.38" height="0.13" fill="#2563eb" opacity="0.78"/><rect x="87.65" y="455.04" width="5.38" height="6.96" fill="#dc2626" opacity="0.78"/><rect x="101.82" y="448.08" width="5.38" height="13.92" fill="#dc2626" opacity="0.78"/><rect x="115.98" y="433.71" width="5.38" height="28.29" fill="#dc2626" opacity="0.78"/><rect x="130.15" y="435.23" width="5.38" height="26.77" fill="#dc2626" opacity="0.78"/><rect x="144.32" y="434.81" width="5.38" height="27.19" fill="#dc2626" opacity="0.78"/><rect x="158.48" y="426.40" width="5.38" height="35.60" fill="#dc2626" opacity="0.78"/><rect x="172.65" y="407.69" width="5.38" height="54.31" fill="#dc2626" opacity="0.78"/><rect x="186.82" y="267.91" width="5.38" height="194.09" fill="#dc2626" opacity="0.78"/><rect x="200.98" y="192.15" width="5.38" height="269.85" fill="#dc2626" opacity="0.78"/><rect x="215.15" y="257.30" width="5.38" height="204.70" fill="#dc2626" opacity="0.78"/><rect x="229.32" y="319.02" width="5.38" height="142.98" fill="#dc2626" opacity="0.78"/><rect x="243.48" y="275.52" width="5.38" height="186.48" fill="#dc2626" opacity="0.78"/><rect x="257.65" y="327.51" width="5.38" height="134.49" fill="#dc2626" opacity="0.78"/><rect x="271.82" y="322.27" width="5.38" height="139.73" fill="#dc2626" opacity="0.78"/><rect x="285.98" y="291.99" width="5.38" height="170.01" fill="#dc2626" opacity="0.78"/><rect x="300.15" y="301.24" width="5.38" height="160.76" fill="#dc2626" opacity="0.78"/><rect x="314.32" y="318.32" width="5.38" height="143.68" fill="#dc2626" opacity="0.78"/><rect x="328.48" y="352.53" width="5.38" height="109.47" fill="#dc2626" opacity="0.78"/><rect x="342.65" y="339.66" width="5.38" height="122.34" fill="#dc2626" opacity="0.78"/><rect x="356.82" y="358.35" width="5.38" height="103.65" fill="#dc2626" opacity="0.78"/><rect x="370.98" y="362.36" width="5.38" height="99.64" fill="#dc2626" opacity="0.78"/><rect x="385.15" y="366.53" width="5.38" height="95.47" fill="#dc2626" opacity="0.78"/><rect x="399.32" y="371.63" width="5.38" height="90.37" fill="#dc2626" opacity="0.78"/><rect x="413.48" y="376.09" width="5.38" height="85.91" fill="#dc2626" opacity="0.78"/><rect x="427.65" y="401.07" width="5.38" height="60.93" fill="#dc2626" opacity="0.78"/><rect x="441.82" y="419.34" width="5.38" height="42.66" fill="#dc2626" opacity="0.78"/><rect x="455.98" y="419.84" width="5.38" height="42.16" fill="#dc2626" opacity="0.78"/><rect x="470.15" y="432.49" width="5.38" height="29.51" fill="#dc2626" opacity="0.78"/><rect x="484.32" y="436.54" width="5.38" height="25.46" fill="#dc2626" opacity="0.78"/><rect x="498.48" y="440.38" width="5.38" height="21.62" fill="#dc2626" opacity="0.78"/><rect x="512.65" y="443.36" width="5.38" height="18.64" fill="#dc2626" opacity="0.78"/><rect x="526.82" y="446.02" width="5.38" height="15.98" fill="#dc2626" opacity="0.78"/><rect x="540.98" y="447.30" width="5.38" height="14.70" fill="#dc2626" opacity="0.78"/><rect x="555.15" y="450.83" width="5.38" height="11.17" fill="#dc2626" opacity="0.78"/><rect x="569.32" y="450.60" width="5.38" height="11.40" fill="#dc2626" opacity="0.78"/><rect x="583.48" y="448.63" width="5.38" height="13.37" fill="#dc2626" opacity="0.78"/><rect x="597.65" y="451.50" width="5.38" height="10.50" fill="#dc2626" opacity="0.78"/><rect x="611.82" y="451.09" width="5.38" height="10.91" fill="#dc2626" opacity="0.78"/><rect x="625.98" y="453.40" width="5.38" height="8.60" fill="#dc2626" opacity="0.78"/><rect x="640.15" y="452.86" width="5.38" height="9.14" fill="#dc2626" opacity="0.78"/><rect x="654.32" y="458.78" width="5.38" height="3.22" fill="#dc2626" opacity="0.78"/><rect x="668.48" y="457.39" width="5.38" height="4.61" fill="#dc2626" opacity="0.78"/><rect x="682.65" y="458.72" width="5.38" height="3.28" fill="#dc2626" opacity="0.78"/><rect x="696.82" y="457.89" width="5.38" height="4.11" fill="#dc2626" opacity="0.78"/><rect x="710.98" y="458.86" width="5.38" height="3.14" fill="#dc2626" opacity="0.78"/><rect x="725.15" y="455.62" width="5.38" height="6.38" fill="#dc2626" opacity="0.78"/><rect x="739.32" y="458.35" width="5.38" height="3.65" fill="#dc2626" opacity="0.78"/><rect x="753.48" y="460.47" width="5.38" height="1.53" fill="#dc2626" opacity="0.78"/><rect x="767.65" y="461.05" width="5.38" height="0.95" fill="#dc2626" opacity="0.78"/><rect x="781.82" y="459.63" width="5.38" height="2.37" fill="#dc2626" opacity="0.78"/><rect x="795.98" y="461.44" width="5.38" height="0.56" fill="#dc2626" opacity="0.78"/><rect x="810.15" y="461.01" width="5.38" height="0.99" fill="#dc2626" opacity="0.78"/><rect x="824.32" y="461.68" width="5.38" height="0.32" fill="#dc2626" opacity="0.78"/><rect x="838.48" y="461.73" width="5.38" height="0.27" fill="#dc2626" opacity="0.78"/><rect x="852.65" y="461.54" width="5.38" height="0.46" fill="#dc2626" opacity="0.78"/><rect x="866.82" y="461.77" width="5.38" height="0.23" fill="#dc2626" opacity="0.78"/><rect x="880.98" y="460.34" width="5.38" height="1.66" fill="#dc2626" opacity="0.78"/><rect x="895.15" y="461.83" width="5.38" height="0.17" fill="#dc2626" opacity="0.78"/><rect x="909.32" y="461.72" width="5.38" height="0.28" fill="#dc2626" opacity="0.78"/><rect x="923.48" y="461.90" width="5.38" height="0.10" fill="#dc2626" opacity="0.78"/><rect x="730" y="58" width="14" height="14" fill="#2563eb" opacity="0.78"/><text x="752" y="70" font-family="sans-serif" font-size="14">positive</text><rect x="830" y="58" width="14" height="14" fill="#dc2626" opacity="0.78"/><text x="852" y="70" font-family="sans-serif" font-size="14">negative</text></svg>
