<?xml version="1.0" encoding="UTF-8"?>
<svg xmlns="http://www.w3.org/2000/svg" width="960" height="540" viewBox="0 0 960 540"><rect width="100%" height="100%" fill="#ffffff"/><text x="480" y="30" text-anchor="middle" font-family="sans-serif" font-size="22" font-weight="700">Peak Count per Spectrum</text><line x1="80.00" y1="462.00" x2="930.00" y2="462.00" stroke="#e5e7eb" stroke-width="1"/><text x="72.00" y="466.00" text-anchor="end" font-family="sans-serif" font-size="12" fill="#111827">0</text><line x1="80.00" y1="380.80" x2="930.00" y2="380.80" stroke="#e5e7eb" stroke-width="1"/><text x="72.00" y="384.80" text-anchor="end" font-family="sans-serif" font-size="12" fill="#111827">38480</text><line x1="80.00" y1="299.60" x2="930.00" y2="299.60" stroke="#e5e7eb" stroke-width="1"/><text x="72.00" y="303.60" text-anchor="end" font-family="sans-serif" font-size="12" fill="#111827">76960</text><line x1="80.00" y1="218.40" x2="930.00" y2="218.40" stroke="#e5e7eb" stroke-width="1"/><text x="72.00" y="222.40" text-anchor="end" font-family="sans-serif" font-size="12" fill="#111827">115441</text><line x1="80.00" y1="137.20" x2="930.00" y2="137.20" stroke="#e5e7eb" stroke-width="1"/><text x="72.00" y="141.20" text-anchor="end" font-family="sans-serif" font-size="12" fill="#111827">153921</text><line x1="80.00" y1="56.00" x2="930.00" y2="56.00" stroke="#e5e7eb" stroke-width="1"/><text x="72.00" y="60.00" text-anchor="end" font-family="sans-serif" font-size="12" fill="#111827">192401</text><line x1="80.00" y1="462.00" x2="930.00" y2="462.00" stroke="#111827" stroke-width="1.5"/><line x1="80.00" y1="56.00" x2="80.00" y2="462.00" stroke="#111827" stroke-width="1.5"/><text x="80.00" y="482.00" text-anchor="middle" font-family="sans-serif" font-size="12" fill="#111827">1.0</text><text x="292.50" y="482.00" text-anchor="middle" font-family="sans-serif" font-size="12" fill="#111827">164.2</text><text x="505.00" y="482.00" text-anchor="middle" font-family="sans-serif" font-size="12" fill="#111827">327.5</text><text x="717.50" y="482.00" text-anchor="middle" font-family="sans-serif" font-size="12" fill="#111827">490.8</text><text x="930.00" y="482.00" text-anchor="middle" font-family="sans-serif" font-size="12" fill="#111827">654.0</text><text x="505.00" y="520" text-anchor="middle" font-family="sans-serif" font-size="15" fill="#111827">Peaks per spectrum</text><text x="22" y="259.00" text-anchor="middle" transform="rotate(-90 22 259.00)" font-family="sans-serif" font-size="15" fill="#111827">Count</text><rect x="81.13" y="370.21" width="5.38" height="91.79" fill="#2563eb" opacity="0.78"/><rect x="95.30" y="140.14" width="5.38" height="321.86" fill="#2563eb" opacity="0.78"/><rect x="109.47" y="182.13" width="5.38" height="279.87" fill="#2563eb" opacity="0.78"/><rect x="123.63" y="214.15" width="5.38" height="247.85" fill="#2563eb" opacity="0.78"/><rect x="137.80" y="239.69" width="5.38" height="222.31" fill="#2563eb" opacity="0.78"/><rect x="151.97" y="260.72" width="5.38" height="201.28" fill="#2563eb" opacity="0.78"/><rect x="166.13" y="289.10" width="5.38" height="172.90" fill="#2563eb" opacity="0.78"/><rect x="180.30" y="324.88" width="5.38" height="137.12" fill="#2563eb" opacity="0.78"/><rect x="194.47" y="374.94" width="5.38" height="87.06" fill="#2563eb" opacity="0.78"/><rect x="208.63" y="399.78" width="5.38" height="62.22" fill="#2563eb" opacity="0.78"/><rect x="222.80" y="425.14" width="5.38" height="36.86" fill="#2563eb" opacity="0.78"/><rect x="236.97" y="440.41" width="5.38" height="21.59" fill="#2563eb" opacity="0.78"/><rect x="251.13" y="449.71" width="5.38" height="12.29" fill="#2563eb" opacity="0.78"/><rect x="265.30" y="454.69" width="5.38" height="7.31" fill="#2563eb" opacity="0.78"/><rect x="279.47" y="457.61" width="5.38" height="4.39" fill="#2563eb" opacity="0.78"/><rect x="293.63" y="459.66" width="5.38" height="2.34" fill="#2563eb" opacity="0.78"/><rect x="307.80" y="460.60" width="5.38" height="1.40" fill="#2563eb" opacity="0.78"/><rect x="321.97" y="461.25" width="5.38" height="0.75" fill="#2563eb" opacity="0.78"/><rect x="336.13" y="461.49" width="5.38" height="0.51" fill="#2563eb" opacity="0.78"/><rect x="350.30" y="461.62" width="5.38" height="0.38" fill="#2563eb" opacity="0.78"/><rect x="364.47" y="461.79" width="5.38" height="0.21" fill="#2563eb" opacity="0.78"/><rect x="378.63" y="461.82" width="5.38" height="0.18" fill="#2563eb" opacity="0.78"/><rect x="392.80" y="461.88" width="5.38" height="0.12" fill="#2563eb" opacity="0.78"/><rect x="406.97" y="461.91" width="5.38" height="0.09" fill="#2563eb" opacity="0.78"/><rect x="421.13" y="461.94" width="5.38" height="0.06" fill="#2563eb" opacity="0.78"/><rect x="435.30" y="461.96" width="5.38" height="0.04" fill="#2563eb" opacity="0.78"/><rect x="449.47" y="461.98" width="5.38" height="0.02" fill="#2563eb" opacity="0.78"/><rect x="463.63" y="461.97" width="5.38" height="0.03" fill="#2563eb" opacity="0.78"/><rect x="477.80" y="461.97" width="5.38" height="0.03" fill="#2563eb" opacity="0.78"/><rect x="491.97" y="462.00" width="5.38" height="0.00" fill="#2563eb" opacity="0.78"/><rect x="506.13" y="461.99" width="5.38" height="0.01" fill="#2563eb" opacity="0.78"/><rect x="520.30" y="461.99" width="5.38" height="0.01" fill="#2563eb" opacity="0.78"/><rect x="534.47" y="462.00" width="5.38" height="0.00" fill="#2563eb" opacity="0.78"/><rect x="548.63" y="462.00" width="5.38" height="0.00" fill="#2563eb" opacity="0.78"/><rect x="562.80" y="462.00" width="5.38" height="0.00" fill="#2563eb" opacity="0.78"/><rect x="576.97" y="462.00" width="5.38" height="0.00" fill="#2563eb" opacity="0.78"/><rect x="591.13" y="462.00" width="5.38" height="0.00" fill="#2563eb" opacity="0.78"/><rect x="605.30" y="462.00" width="5.38" height="0.00" fill="#2563eb" opacity="0.78"/><rect x="619.47" y="462.00" width="5.38" height="0.00" fill="#2563eb" opacity="0.78"/><rect x="633.63" y="462.00" width="5.38" height="0.00" fill="#2563eb" opacity="0.78"/><rect x="647.80" y="462.00" width="5.38" height="0.00" fill="#2563eb" opacity="0.78"/><rect x="661.97" y="462.00" width="5.38" height="0.00" fill="#2563eb" opacity="0.78"/><rect x="676.13" y="462.00" width="5.38" height="0.00" fill="#2563eb" opacity="0.78"/><rect x="690.30" y="462.00" width="5.38" height="0.00" fill="#2563eb" opacity="0.78"/><rect x="704.47" y="462.00" width="5.38" height="0.00" fill="#2563eb" opacity="0.78"/><rect x="718.63" y="462.00" width="5.38" height="0.00" fill="#2563eb" opacity="0.78"/><rect x="732.80" y="462.00" width="5.38" height="0.00" fill="#2563eb" opacity="0.78"/><rect x="746.97" y="462.00" width="5.38" height="0.00" fill="#2563eb" opacity="0.78"/><rect x="761.13" y="462.00" width="5.38" height="0.00" fill="#2563eb" opacity="0.78"/><rect x="775.30" y="462.00" width="5.38" height="0.00" fill="#2563eb" opacity="0.78"/><rect x="789.47" y="462.00" width="5.38" height="0.00" fill="#2563eb" opacity="0.78"/><rect x="803.63" y="462.00" width="5.38" height="0.00" fill="#2563eb" opacity="0.78"/><rect x="817.80" y="462.00" width="5.38" height="0.00" fill="#2563eb" opacity="0.78"/><rect x="831.97" y="462.00" width="5.38" height="0.00" fill="#2563eb" opacity="0.78"/><rect x="846.13" y="462.00" width="5.38" height="0.00" fill="#2563eb" opacity="0.78"/><rect x="860.30" y="462.00" width="5.38" height="0.00" fill="#2563eb" opacity="0.78"/><rect x="874.47" y="462.00" width="5.38" height="0.00" fill="#2563eb" opacity="0.78"/><rect x="888.63" y="462.00" width="5.38" height="0.00" fill="#2563eb" opacity="0.78"/><rect x="902.80" y="462.00" width="5.38" height="0.00" fill="#2563eb" opacity="0.78"/><rect x="916.97" y="462.00" width="5.38" height="0.00" fill="#2563eb" opacity="0.78"/><rect x="87.65" y="395.98" width="5.38" height="66.02" fill="#dc2626" opacity="0.78"/><rect x="101.82" y="56.00" width="5.38" height="406.00" fill="#dc2626" opacity="0.78"/><rect x="115.98" y="135.99" width="5.38" height="326.01" fill="#dc2626" opacity="0.78"/><rect x="130.15" y="287.56" width="5.38" height="174.44" fill="#dc2626" opacity="0.78"/><rect x="144.32" y="385.26" width="5.38" height="76.74" fill="#dc2626" opacity="0.78"/><rect x="158.48" y="429.13" width="5.38" height="32.87" fill="#dc2626" opacity="0.78"/><rect x="172.65" y="448.43" width="5.38" height="13.57" fill="#dc2626" opacity="0.78"/><rect x="186.82" y="455.88" width="5.38" height="6.12" fill="#dc2626" opacity="0.78"/><rect x="200.98" y="459.42" width="5.38" height="2.58" fill="#dc2626" opacity="0.78"/><rect x="215.15" y="460.61" width="5.38" height="1.39" fill="#dc2626" opacity="0.78"/><rect x="229.32" y="461.25" width="5.38" height="0.75" fill="#dc2626" opacity="0.78"/><rect x="243.48" y="461.62" width="5.38" height="0.38" fill="#dc2626" opacity="0.78"/><rect x="257.65" y="461.82" width="5.38" height="0.18" fill="#dc2626" opacity="0.78"/><rect x="271.82" y="461.90" width="5.38" height="0.10" fill="#dc2626" opacity="0.78"/><rect x="285.98" y="461.92" width="5.38" height="0.08" fill="#dc2626" opacity="0.78"/><rect x="300.15" y="461.95" width="5.38" height="0.05" fill="#dc2626" opacity="0.78"/><rect x="314.32" y="461.98" width="5.38" height="0.02" fill="#dc2626" opacity="0.78"/><rect x="328.48" y="461.99" width="5.38" height="0.01" fill="#dc2626" opacity="0.78"/><rect x="342.65" y="461.98" width="5.38" height="0.02" fill="#dc2626" opacity="0.78"/><rect x="356.82" y="461.99" width="5.38" height="0.01" fill="#dc2626" opacity="0.78"/><rect x="370.98" y="461.99" width="5.38" height="0.01" fill="#dc2626" opacity="0.78"/><rect x="385.15" y="461.99" width="5.38" height="0.01" fill="#dc2626" opacity="0.78"/><rect x="399.32" y="461.99" width="5.38" height="0.01" fill="#dc2626" opacity="0.78"/><rect x="413.48" y="462.00" width="5.38" height="0.00" fill="#dc2626" opacity="0.78"/><rect x="427.65" y="462.00" width="5.38" height="0.00" fill="#dc2626" opacity="0.78"/><rect x="441.82" y="462.00" width="5.38" height="0.00" fill="#dc2626" opacity="0.78"/><rect x="455.98" y="462.00" width="5.38" height="0.00" fill="#dc2626" opacity="0.78"/><rect x="470.15" y="462.00" width="5.38" height="0.00" fill="#dc2626" opacity="0.78"/><rect x="484.32" y="462.00" width="5.38" height="0.00" fill="#dc2626" opacity="0.78"/><rect x="498.48" y="462.00" width="5.38" height="0.00" fill="#dc2626" opacity="0.78"/><rect x="512.65" y="462.00" width="5.38" height="0.00" fill="#dc2626" opacity="0.78"/><rect x="526.82" y="462.00" width="5.38" height="0.00" fill="#dc2626" opacity="0.78"/><rect x="540.98" y="462.00" width="5.38" height="0.00" fill="#dc2626" opacity="0.78"/><rect x="555.15" y="462.00" width="5.38" height="0.00" fill="#dc2626" opacity="0.78"/><rect x="569.32" y="462.00" width="5.38" height="0.00" fill="#dc2626" opacity="0.78"/><rect x="583.48" y="462.00" width="5.38" height="0.00" fill="#dc2626" opacity="0.78"/><rect x="597.65" y="462.00" width="5.38" height="0.00" fill="#dc2626" opacity="0.78"/><rect x="611.82" y="462.00" width="5.38" height="0.00" fill="#dc2626" opacity="0.78"/><rect x="625.98" y="462.00" width="5.38" height="0.00" fill="#dc2626" opacity="0.78"/><rect x="640.15" y="462.00" width="5.38" height="0.00" fill="#dc2626" opacity="0.78"/><rect x="654.32" y="462.00" width="5.38" height="0.00" fill="#dc2626" opacity="0.78"/><rect x="668.48" y="462.00" width="5.38" height="0.00" fill="#dc2626" opacity="0.78"/><rect x="682.65" y="462.00" width="5.38" height="0.00" fill="#dc2626" opacity="0.78"/><rect x="696.82" y="462.00" width="5.38" height="0.00" fill="#dc2626" opacity="0.78"/><rect x="710.98" y="462.00" width="5.38" height="0.00" fill="#dc2626" opacity="0.78"/><rect x="725.15" y="462.00" width="5.38" height="0.00" fill="#dc2626" opacity="0.78"/><rect x="739.32" y="462.00" width="5.38" height="0.00" fill="#dc2626" opacity="0.78"/><rect x="753.48" y="462.00" width="5.38" height="0.00" fill="#dc2626" opacity="0.78"/><rect x="767.65" y="462.00" width="5.38" height="0.00" fill="#dc2626" opacity="0.78"/><rect x="781.82" y="462.00" width="5.38" height="0.00" fill="#dc2626" opacity="0.78"/><rect x="795.98" y="462.00" width="5.38" height="0.00" fill="#dc2626" opacity="0.78"/><rect x="810.15" y="462.00" width="5.38" height="0.00" fill="#dc2626" opacity="0.78"/><rect x="824.32" y="462.00" width="5.38" height="0.00" fill="#dc2626" opacity="0.78"/><rect x="838.48" y="462.00" width="5.38" height="0.00" fill="#dc2626" opacity="0.78"/><rect x="852.65" y="462.00" width="5.38" height="0.00" fill="#dc2626" opacity="0.78"/><rect x="866.82" y="462.00" width="5.38" height="0.00" fill="#dc2626" opacity="0.78"/><rect x="880.98" y="462.00" width="5.38" height="0.00" fill="#dc2626" opacity="0.78"/><rect x="895.15" y="462.00" width="5.38" height="0.00" fill="#dc2626" opacity="0.78"/><rect x="909.32" y="462.00" width="5.38" height="0.00" fill="#dc2626" opacity="0.78"/><rect x="923.48" y="462.00" width="5.38" height="0.00" fill="#dc2626" opacity="0.78"/><rect x="730" y="58" width="14" height="14" fill="#2563eb" opacity="0.78"/><text x="752" y="70" font-family="sans-serif" font-size="14">positive</text><rect x="830" y="58" width="14" height="14" fill="#dc2626" opacity="0.78"/><text x="852" y="70" font-family="sans-serif" font-size="14">negative</text></svg>
